<svg id="Layer_1" data-name="Layer 1" xmlns="http://www.w3.org/2000/svg" xmlns:xlink="http://www.w3.org/1999/xlink" viewBox="0 0 578.38 243.77">
    <defs>
        <style>.cls-1{isolation:isolate;}.cls-2{fill:#50535a;}.cls-3{fill:none;stroke-linecap:round;stroke-miterlimit:10;stroke-width:13.95px;stroke:url(#linear-gradient);}</style>
        <linearGradient id="linear-gradient" x1="425" y1="124.92" x2="425" y2="328.57" gradientTransform="matrix(1, 0, 0, -1, 0, 390)" gradientUnits="userSpaceOnUse">
            <stop offset="0.68" stop-color="#0266af" />
            <stop offset="0.94" stop-color="#0266af" stop-opacity="0" />
        </linearGradient>
    </defs>
    <g class="cls-1">
        <path class="cls-2" d="M404.33,279.06A26.73,26.73,0,0,1,406,270a25.32,25.32,0,0,1,4.82-8.14,24.43,24.43,0,0,1,7.75-5.82,23.51,23.51,0,0,1,10.35-2.21,22,22,0,0,1,11.86,3.07,19.92,19.92,0,0,1,7.42,8l-6.28,4.21a14.14,14.14,0,0,0-2.57-3.85,12.53,12.53,0,0,0-3.29-2.5,14.32,14.32,0,0,0-3.71-1.33,18.65,18.65,0,0,0-3.71-.39,14.61,14.61,0,0,0-7,1.61,15.45,15.45,0,0,0-5,4.25,19,19,0,0,0-3.08,5.92,21.8,21.8,0,0,0-1,6.57,20.56,20.56,0,0,0,1.21,7.07,19,19,0,0,0,3.4,5.93,16.64,16.64,0,0,0,5.17,4.11,14.25,14.25,0,0,0,6.57,1.53,16.53,16.53,0,0,0,3.82-.46,14.4,14.4,0,0,0,3.79-1.5,15.07,15.07,0,0,0,3.35-2.61,12.93,12.93,0,0,0,2.54-3.78l6.64,3.78a15.4,15.4,0,0,1-3.43,5,21.71,21.71,0,0,1-5,3.67,25.35,25.35,0,0,1-5.89,2.29,25,25,0,0,1-6.1.79,21.11,21.11,0,0,1-9.79-2.29,25.64,25.64,0,0,1-7.64-6,27.5,27.5,0,0,1-5-8.36A26.51,26.51,0,0,1,404.33,279.06Z" transform="translate(-80.2 -61.43)" />
        <path class="cls-2" d="M459.38,304.77v-50.7h8V297.7h27.21v7.07Z" transform="translate(-80.2 -61.43)" />
        <path class="cls-2" d="M521.94,305.12a22.25,22.25,0,0,1-9.89-2.17,24.74,24.74,0,0,1-7.68-5.79,26.13,26.13,0,0,1-5-8.25,26.62,26.62,0,0,1-1.75-9.49,25.93,25.93,0,0,1,1.86-9.72,27,27,0,0,1,5.1-8.21,24.4,24.4,0,0,1,7.71-5.67,22.5,22.5,0,0,1,9.75-2.11A21.63,21.63,0,0,1,532,256a24.71,24.71,0,0,1,7.64,5.89,27.13,27.13,0,0,1,4.93,8.25,26.44,26.44,0,0,1-.07,19.1,25.69,25.69,0,0,1-5.11,8.18,25.31,25.31,0,0,1-7.74,5.64A22.49,22.49,0,0,1,521.94,305.12Zm-16.14-25.7a21.32,21.32,0,0,0,1.14,6.92,19,19,0,0,0,3.25,5.93,16.1,16.1,0,0,0,5.11,4.11,14.56,14.56,0,0,0,6.71,1.53,14,14,0,0,0,6.82-1.61,16.1,16.1,0,0,0,5-4.24,19.39,19.39,0,0,0,3.14-5.93,21.65,21.65,0,0,0,1.07-6.71,21.35,21.35,0,0,0-1.14-7,18.73,18.73,0,0,0-3.25-5.85,16.3,16.3,0,0,0-5.07-4.07A14.09,14.09,0,0,0,522,261a14.29,14.29,0,0,0-6.85,1.61,16.23,16.23,0,0,0-5.07,4.18,18.49,18.49,0,0,0-3.18,5.89A21.13,21.13,0,0,0,505.8,279.42Z" transform="translate(-80.2 -61.43)" />
        <path class="cls-2" d="M578.71,297.91a12.77,12.77,0,0,0,6.64-1.57,12.57,12.57,0,0,0,4.25-4.11,17.22,17.22,0,0,0,2.28-5.78,32.08,32.08,0,0,0,.68-6.68v-25.7h8.07v25.7a38.35,38.35,0,0,1-1.21,9.82,22.72,22.72,0,0,1-3.86,8.07,18.32,18.32,0,0,1-6.82,5.46,23,23,0,0,1-10,2,22.67,22.67,0,0,1-10.25-2.1,18.67,18.67,0,0,1-6.75-5.64,23.24,23.24,0,0,1-3.71-8.11,39.11,39.11,0,0,1-1.14-9.5v-25.7h8v25.7a33,33,0,0,0,.67,6.75,17.5,17.5,0,0,0,2.29,5.79,12.2,12.2,0,0,0,4.28,4.07A13.16,13.16,0,0,0,578.71,297.91Z" transform="translate(-80.2 -61.43)" />
        <path class="cls-2" d="M614.27,304.77v-50.7h18a26.66,26.66,0,0,1,10.74,2,22.18,22.18,0,0,1,7.72,5.42,22.71,22.71,0,0,1,4.67,8,30.11,30.11,0,0,1,1.57,9.81,29.63,29.63,0,0,1-1.75,10.47,22.79,22.79,0,0,1-5,8,22.05,22.05,0,0,1-7.78,5.15,27.46,27.46,0,0,1-10.21,1.82Zm34.56-25.43a23.6,23.6,0,0,0-1.1-7.35,16,16,0,0,0-3.25-5.75,15.24,15.24,0,0,0-5.22-3.75,17.19,17.19,0,0,0-7-1.36h-10V297.7h10a17.17,17.17,0,0,0,7.1-1.4,14.5,14.5,0,0,0,5.21-3.85,16.42,16.42,0,0,0,3.18-5.82A23.7,23.7,0,0,0,648.83,279.34Z" transform="translate(-80.2 -61.43)" />
    </g>
    <path class="cls-2" d="M657,174.7c-5.3-14.1-20.2-18.5-33.4-22.6-11.1-3.3-19.1-6.5-21.9-14.2a15.42,15.42,0,0,1,1-11.7c4.7-8.9,17-8.9,17.1-8.9,9.9,0,19.2,4.3,26.3,12.1a27.46,27.46,0,0,1,2.2,2.6l10.2-10.2a52.2,52.2,0,0,0-38.7-17.4c-2.4,0-23,.4-31.1,15.7a27.29,27.29,0,0,0-1.7,22c4.9,13.6,19.8,18.2,32.7,22.1,11.4,3.5,19.5,6.7,22.4,14.8a15.87,15.87,0,0,1-.3,10.9c-2.9,7-10,11.4-22.2,11.6a35.06,35.06,0,0,1-26.3-12.1,17.09,17.09,0,0,1-2.1-2.6l-10.3,10.3a52.81,52.81,0,0,0,38.7,17.3c17.6-.1,31.6-7.5,36.6-19.4a27.32,27.32,0,0,0,.8-20.3" transform="translate(-80.2 -61.43)" />
    <path class="cls-2" d="M509.9,104.4c-29.3,0-53.1,24.5-53.1,54.9s23.8,55,53.1,55,53.1-24.7,53.1-55-23.9-54.9-53.1-54.9m0,12.9a35.06,35.06,0,0,1,26.3,12.1,45.61,45.61,0,0,1,0,60.1,35.21,35.21,0,0,1-26.3,12.1c-9.9,0-19.2-4.3-26.3-12.1a45.09,45.09,0,0,1-11.3-30.1,44.34,44.34,0,0,1,11.3-30c7.1-7.8,16.4-12.1,26.3-12.1" transform="translate(-80.2 -61.43)" />
    <polygon class="cls-2" points="208.5 137.38 208.5 102.38 252.6 102.38 252.6 89.38 208.5 89.38 208.5 58.48 262.5 58.48 262.5 45.67 193 45.67 193 150.18 265.2 150.18 265.2 137.38 208.5 137.38" />
    <polygon class="cls-2" points="116.6 137.38 116.6 45.67 101.2 45.67 101.2 150.18 169.3 150.18 169.3 137.38 116.6 137.38" />
    <path class="cls-2" d="M120.6,171.2H95.8V119.9h24.8c12,0,21.6,11.6,21.6,25.6s-9.6,25.7-21.6,25.7m37.1-25.7c0-21.2-16.4-38.3-36.8-38.4H80.2V211.6H95.8V184h25.1c20.4-.2,36.8-17.3,36.8-38.5" transform="translate(-80.2 -61.43)" />
    <polygon class="cls-2" points="275.1 46.38 311.4 98.78 320.4 111.88 347.4 150.88 365.4 150.88 329.1 98.78 320.2 85.47 293.2 46.38 275.1 46.38" />
    <path class="cls-3" d="M354.2,258.1s26.9-118,141.6-189.7" transform="translate(-80.2 -61.43)" />
</svg>