<svg width="31" height="31" viewBox="0 0 31 31" fill="none" xmlns="http://www.w3.org/2000/svg">
<path d="M15.5 0.1875C7.04395 0.1875 0.1875 7.04395 0.1875 15.5C0.1875 23.9561 7.04395 30.8125 15.5 30.8125C23.9561 30.8125 30.8125 23.9561 30.8125 15.5C30.8125 7.04395 23.9561 0.1875 15.5 0.1875ZM20.4253 15.7358L12.9604 21.167C12.9195 21.1964 12.8713 21.214 12.821 21.2177C12.7708 21.2215 12.7205 21.2114 12.6756 21.1884C12.6307 21.1654 12.5931 21.1306 12.5667 21.0876C12.5404 21.0446 12.5264 20.9952 12.5264 20.9448V10.0894C12.5262 10.0389 12.54 9.9893 12.5663 9.94618C12.5926 9.90306 12.6303 9.86806 12.6752 9.84505C12.7202 9.82204 12.7706 9.81193 12.821 9.81584C12.8713 9.81975 12.9196 9.83752 12.9604 9.86719L20.4253 15.2949C20.4606 15.3199 20.4893 15.3529 20.5092 15.3913C20.529 15.4296 20.5394 15.4722 20.5394 15.5154C20.5394 15.5586 20.529 15.6011 20.5092 15.6395C20.4893 15.6779 20.4606 15.7109 20.4253 15.7358Z" fill="#4AA7A9"/>
</svg>
