<svg xmlns="http://www.w3.org/2000/svg" viewBox="0 0 20 20"><defs><style>.cls-1{fill:#fff;opacity:0;}.cls-2{fill:#4aa7a9;stroke-width:0.1px;}.cls-2,.cls-3{stroke:#4aa7a9;stroke-miterlimit:10;}.cls-3{fill:none;stroke-linecap:round;}</style></defs><g id="Layer_2" data-name="Layer 2"><g id="Layer_1-2" data-name="Layer 1"><g id="I-W-03"><rect class="cls-1" width="20" height="20"/><path class="cls-2" d="M16.28,15.16a1.64,1.64,0,0,1-1.41.8,2.24,2.24,0,0,1-1-.26l-.32-.13a.78.78,0,0,0-.22,0,.51.51,0,0,0-.3.11c-.16.11-.33.21-.5.31l-.3.18a2.49,2.49,0,0,1-.27.11.82.82,0,0,0-.56.37,2,2,0,0,0-.18.68,2.51,2.51,0,0,1,0,.27,1.64,1.64,0,0,1-1.41,1.29,7.13,7.13,0,0,1-1.31,0V17.79l1,0a.63.63,0,0,0,.69-.56l0-.2c.07-.34.15-.68.21-1a.56.56,0,0,1,.41-.48,6.22,6.22,0,0,0,2-1.09.54.54,0,0,1,.57-.09l.46.18.72.28a.62.62,0,0,0,.86-.29c.2-.32.4-.65.59-1a.61.61,0,0,0-.14-.89l-.53-.47-.4-.35a.56.56,0,0,1-.2-.58A5.71,5.71,0,0,0,14.78,9,.59.59,0,0,1,15,8.39c.33-.24.64-.5,1-.76a.6.6,0,0,0,.16-.88c-.17-.32-.35-.64-.53-1a.63.63,0,0,0-.84-.33l-.58.19-.63.2a.58.58,0,0,1-.62-.15A5.83,5.83,0,0,0,11.1,4.58.67.67,0,0,1,10.63,4c0-.36-.09-.72-.15-1.06l0-.13a.59.59,0,0,0-.59-.53l-1.27,0-.16,0V1.16a6.77,6.77,0,0,1,1.84.07,1.63,1.63,0,0,1,1.23,1.31l0,.19c0,.15.05.3.07.45a.67.67,0,0,0,.48.66,3.1,3.1,0,0,1,.4.21,1.55,1.55,0,0,0,.22.12,2,2,0,0,1,.26.2,1.06,1.06,0,0,0,.6.31,1.62,1.62,0,0,0,.72-.17l.23-.1a1.69,1.69,0,0,1,2,.78c.21.37.41.74.61,1.12a1.66,1.66,0,0,1-.41,2.14c-.2.17-.41.33-.62.49a.45.45,0,0,0-.19.44,5.23,5.23,0,0,1,0,.89v.07a1.26,1.26,0,0,1,0,.27,1,1,0,0,0,0,.65,1.41,1.41,0,0,0,.45.46l.2.16a1.66,1.66,0,0,1,.35,2.25C16.7,14.47,16.5,14.82,16.28,15.16Z"/><line class="cls-3" x1="8.23" y1="1" x2="8.23" y2="19"/><line class="cls-3" x1="5.56" y1="3.35" x2="5.56" y2="16.65"/><line class="cls-3" x1="2.66" y1="6.64" x2="2.66" y2="13.36"/><path class="cls-2" d="M12.1,9.23a3.27,3.27,0,0,1-.39,2.5,3.34,3.34,0,0,1-2.05,1.49,3.42,3.42,0,0,1-1,.07v-1a2,2,0,0,0,.74,0,2.3,2.3,0,0,0,1.43-1A2.3,2.3,0,0,0,8.69,7.72v-1h.2A3.3,3.3,0,0,1,12.1,9.23Z"/></g></g></g></svg>